<svg id="Capa_1" enable-background="new 0 0 497 497" height="512" viewBox="0 0 497 497" width="512" xmlns="http://www.w3.org/2000/svg"><g><path d="m33.133 455.583v24.85c0 9.15 7.417 16.567 16.567 16.567h397.6c9.15 0 16.567-7.417 16.567-16.567v-24.85z" fill="#394d5c"/><path d="m33.133 455.583v24.85c0 9.15 7.417 16.567 16.567 16.567h397.6c9.15 0 16.567-7.417 16.567-16.567v-24.85z" fill="#394d5c"/><path d="m440.874 455.583v24.85c0 9.15-7.417 16.567-16.567 16.567h22.992c9.15 0 16.567-7.417 16.567-16.567v-24.85z" fill="#2c4252"/><path d="m455.583 463.867h-414.166c-5.041 0-8.913-4.465-8.2-9.455l3.538-24.287 7.111-7.629-4.953-7.187 29.248-200.762 6.126-7.728-3.963-7.119 23.254-159.603 5.912-6.258-3.813-8.145 2.707-18.583c.582-4.08 4.077-7.111 8.199-7.111h18.426l7.29 5 7.639-5h34.843l6.717 5 8.217-5h18.489l7.782 5 7.417-5h50.361l8.399 4 6.733-4h18.418l7.57 5 7.38-5h34.747l7.743 4 7.249-4h3.191l88.588 454.412c.714 4.99-3.159 9.455-8.199 9.455z" fill="#83e85a"/><path d="m463.783 454.412-3.529-24.222-7.031-7.08 4.879-7.697-29.257-200.816-6.914-6.27 4.736-8.676-23.225-159.41-5.935-6.415 3.79-8.307-2.682-18.407c-.583-4.081-4.078-7.112-8.2-7.112h-18.452l-4.361.533c1.685 0 3.086-.027 4.406.851 1.908 1.269 3.27 3.315 3.615 5.727l65.168 447.3c.713 4.99-3.159 9.455-8.2 9.455h22.993c5.039.001 8.912-4.464 8.199-9.454z" fill="#4ae048"/><g><path d="m248.499 256c-31.54 0-57.2-21.944-57.2-48.916 0-26.973 25.66-48.917 57.2-48.917s57.2 21.944 57.2 48.917c0 26.972-25.66 48.916-57.2 48.916zm0-82.833c-23.269 0-42.2 15.215-42.2 33.917s18.931 33.916 42.2 33.916 42.2-15.215 42.2-33.916-18.93-33.917-42.2-33.917z" fill="#fafafa"/></g><g><path d="m314.766 371.963c-4.143 0-7.5-3.358-7.5-7.5 0-23.268-26.362-42.197-58.767-42.197-32.404 0-58.767 18.929-58.767 42.197 0 4.142-3.358 7.5-7.5 7.5s-7.5-3.358-7.5-7.5c0-31.539 33.092-57.197 73.767-57.197s73.767 25.658 73.767 57.197c0 4.142-3.358 7.5-7.5 7.5z" fill="#fafafa"/></g><g><path d="m248.499 106.9c-26.973 0-48.917-18.228-48.917-40.633 0-4.142 3.358-7.5 7.5-7.5s7.5 3.358 7.5 7.5c0 14.134 15.215 25.633 33.917 25.633s33.917-11.499 33.917-25.633c0-4.142 3.357-7.5 7.5-7.5s7.5 3.358 7.5 7.5c0 22.405-21.944 40.633-48.917 40.633z" fill="#fafafa"/></g><g fill="#fafafa"><path d="m210.97 40.631 75.06-.003c2.175 0 4.241-.944 5.666-2.586 1.425-1.643 2.066-3.822 1.759-5.975l-4.575-32.067h-15.212l3.714 25.629-57.765.002 3.798-25.631h-15.21l-4.661 32.071c-.307 2.152.335 4.332 1.759 5.975 1.425 1.642 3.493 2.585 5.667 2.585z"/><path d="m172.766 73.766 151.465-.006c2.175 0 4.241-.943 5.666-2.586s2.066-3.822 1.759-5.975l-9.314-65.199h-15.068c0 .351.016.704.067 1.061l8.243 57.7-134.171.005 8.244-57.705c.051-.357.067-.71.067-1.061h-15.068l-9.315 65.206c-.307 2.152.335 4.332 1.759 5.975 1.425 1.642 3.492 2.585 5.666 2.585z"/><path d="m99.399 25.633c-1.231 0-2.467-.088-3.676-.261l-2.162 14.843c.005.001.009.002.014.003 1.918.275 3.877.415 5.824.415 22.405 0 40.633-18.228 40.633-40.633h-15c0 14.134-11.499 25.633-25.633 25.633z"/><path d="m354.988 462.809-9.467-66.272c-.528-3.695-3.692-6.439-7.425-6.439l-179.193.002c-3.732 0-6.897 2.745-7.425 6.44l-9.467 66.266c-.051.357-.067.71-.067 1.061h15.068l8.395-58.767 166.184-.003 8.395 58.769h15.069c-.001-.349-.017-.701-.067-1.057z"/><path d="m388.457 462.806-14.2-99.403c-.528-3.695-3.692-6.439-7.425-6.439l-236.667.003c-3.732 0-6.897 2.745-7.425 6.439l-14.2 99.4c-.051.357-.067.71-.067 1.06h15.068l13.128-91.9 223.657-.003 13.129 91.903h15.069c0-.35-.016-.703-.067-1.06z"/><path d="m397.599 40.633c1.947 0 3.906-.14 5.824-.415.005-.001.01-.002.015-.003l-2.162-14.843c-1.209.173-2.445.261-3.677.261-14.134 0-25.633-11.499-25.633-25.633h-15c0 22.405 18.228 40.633 40.633 40.633z"/><path d="m82.046 463.863c0-24.832-18.525-45.667-43.13-48.569l-2.161 14.833c.08.012.157.03.238.039 17.133 1.936 30.053 16.423 30.053 33.697v.003h15s0-.002 0-.003z"/></g><g fill="#d0e2ed"><path d="m371.966 0h-4.544c1.687 0 3.263.514 4.583 1.393-.025-.462-.039-.926-.039-1.393z"/><path d="m397.599 25.633c-8.583 0-16.189-4.245-20.843-10.741l3.159 21.685c5.349 2.597 11.349 4.056 17.684 4.056 1.947 0 3.906-.14 5.824-.415l.015-.003-1.376-9.444-.787-5.399c-1.209.173-2.445.261-3.676.261z"/></g><path d="m68.157 214.584h360.685l-2.186-15h-356.313z" fill="#fafafa"/><path d="m460.245 430.127-2.161-14.833c-24.606 2.902-43.131 23.737-43.131 48.569v.003h14.999c0-.001 0-.002 0-.003 0-17.274 12.921-31.761 30.054-33.697.081-.009.159-.027.239-.039z" fill="#fafafa"/></g><g fill="#d0e2ed"><path d="m426.656 199.583h-22.993l2.186 15h22.993l-.848-5.822z"/><path d="m460.245 430.127-1.52-10.431-.641-4.403c-8.071.952-15.48 3.843-21.804 8.162l2.551 17.511c5.352-5.859 12.752-9.849 21.175-10.8.081-.009.159-.027.239-.039z"/></g></svg>